<svg width="1368" height="1368" viewBox="0 0 1368 1368" fill="none" xmlns="http://www.w3.org/2000/svg">
<rect width="1368" height="1368" rx="225" fill="#10DE54"/>
<path d="M841.177 436.789C901.917 352.913 1023.47 321.683 1110.99 378.256C1201.48 436.749 1227.47 557.432 1169.05 647.809C1168.75 648.287 1168.43 648.761 1168.12 649.233C1089.71 559.239 976.362 484.258 841.177 436.789Z" fill="#2C2B30"/>
<path d="M170.333 163.558L386.325 481.032C316.486 513.819 254.366 554.364 202.273 600.498L169.951 163.372L170.333 163.558Z" fill="#2C2B30"/>
<path d="M662.661 466.654C931.68 466.654 1149.76 622.074 1149.76 813.794C1149.76 1005.51 931.68 1160.93 662.661 1160.93C393.642 1160.93 175.56 1005.51 175.56 813.794C175.56 622.074 393.642 466.654 662.661 466.654ZM513.34 632.566C488.435 632.567 468.246 652.756 468.246 677.661V855.485C468.246 880.39 488.435 900.579 513.34 900.579C538.245 900.579 558.434 880.39 558.435 855.485V677.661C558.435 652.756 538.245 632.566 513.34 632.566ZM811.982 632.566C787.078 632.566 766.889 652.756 766.889 677.661V855.485C766.889 880.39 787.078 900.579 811.982 900.579C836.887 900.579 857.077 880.39 857.077 855.485V677.661C857.077 652.756 836.887 632.566 811.982 632.566Z" fill="#2C2B30"/>
</svg>
